<svg xmlns="http://www.w3.org/2000/svg" width="60" height="60" fill="none"><g clip-path="url(#a)"><circle cx="30" cy="30" r="30" fill="#FFBC57"/><path fill="#fff" d="M30 28.5a1.5 1.5 0 0 0-1.5 1.5v6a1.5 1.5 0 1 0 3 0v-6a1.5 1.5 0 0 0-1.5-1.5Zm.57-5.88a1.5 1.5 0 0 0-1.14 0 1.5 1.5 0 0 0-.495.315 1.725 1.725 0 0 0-.315.495 1.26 1.26 0 0 0-.12.57 1.502 1.502 0 0 0 .435 1.065c.146.133.313.239.495.315A1.5 1.5 0 0 0 31.5 24a1.575 1.575 0 0 0-.435-1.065 1.5 1.5 0 0 0-.495-.315ZM30 15a15 15 0 1 0 0 29.998A15 15 0 0 0 30 15Zm0 27a12 12 0 1 1 0-24 12 12 0 0 1 0 24Z"/></g><defs><clipPath id="a"><path fill="#fff" d="M0 0h60v60H0z"/></clipPath></defs></svg>