<svg xmlns="http://www.w3.org/2000/svg" width="60" height="60" fill="none"><g clip-path="url(#a)"><circle cx="30" cy="30" r="30" fill="#FFBC57"/><path fill="#fff" d="m36.939 23.33-8.502 8.531-3.325-3.348a1.804 1.804 0 0 0-2.944 1.97c.09.22.224.418.391.586l4.602 4.608a1.798 1.798 0 0 0 2.552 0l9.778-9.792a1.807 1.807 0 0 0-2.552-2.556ZM31.025 11a17.954 17.954 0 0 0-12.71 5.272 18.012 18.012 0 0 0-5.264 12.727 17.816 17.816 0 0 0 4.062 11.394l-3.595 3.6a1.8 1.8 0 0 0-.378 1.962 1.8 1.8 0 0 0 1.708 1.043h16.177c4.767 0 9.34-1.896 12.71-5.271A18.012 18.012 0 0 0 49 28.999c0-4.773-1.894-9.352-5.265-12.727A17.962 17.962 0 0 0 31.025 11Zm0 32.399H19.18l1.672-1.674a1.801 1.801 0 0 0 0-2.538 14.415 14.415 0 0 1-1.799-18.18 14.381 14.381 0 0 1 7.778-5.784 14.361 14.361 0 0 1 9.677.47 14.387 14.387 0 0 1 7.183 6.51 14.417 14.417 0 0 1-3.546 17.92 14.368 14.368 0 0 1-9.12 3.276Z"/></g><defs><clipPath id="a"><path fill="#fff" d="M0 0h60v60H0z"/></clipPath></defs></svg>