<svg width="40" height="40" viewBox="0 0 40 40" fill="none" xmlns="http://www.w3.org/2000/svg">
<path d="M18.8173 25.483C18.7456 25.5622 18.6789 25.6457 18.6173 25.733C18.5542 25.8259 18.5038 25.9268 18.4673 26.033C18.4193 26.1275 18.3856 26.2286 18.3673 26.333C18.3591 26.444 18.3591 26.5554 18.3673 26.6663C18.3617 26.885 18.4074 27.1019 18.5007 27.2997C18.5755 27.5065 18.6949 27.6943 18.8505 27.8499C19.006 28.0054 19.1938 28.1248 19.4007 28.1997C19.6002 28.2879 19.8159 28.3334 20.034 28.3334C20.2521 28.3334 20.4678 28.2879 20.6673 28.1997C20.8742 28.1248 21.062 28.0054 21.2175 27.8499C21.373 27.6943 21.4925 27.5065 21.5673 27.2997C21.6413 27.097 21.6753 26.8819 21.6673 26.6663C21.6686 26.447 21.6266 26.2296 21.5436 26.0265C21.4607 25.8234 21.3385 25.6387 21.184 25.483C21.0291 25.3268 20.8447 25.2028 20.6416 25.1182C20.4385 25.0336 20.2207 24.99 20.0007 24.99C19.7806 24.99 19.5628 25.0336 19.3597 25.1182C19.1566 25.2028 18.9723 25.3268 18.8173 25.483ZM20.0007 3.33301C16.7043 3.33301 13.482 4.31049 10.7412 6.14185C8.00034 7.9732 5.86413 10.5762 4.60267 13.6216C3.34121 16.6671 3.01115 20.0182 3.65424 23.2512C4.29732 26.4842 5.88467 29.4539 8.21555 31.7848C10.5464 34.1157 13.5161 35.703 16.7492 36.3461C19.9822 36.9892 23.3333 36.6591 26.3787 35.3977C29.4242 34.1362 32.0271 32 33.8585 29.2592C35.6898 26.5184 36.6673 23.296 36.6673 19.9997C36.6673 17.811 36.2362 15.6437 35.3987 13.6216C34.5611 11.5995 33.3334 9.7622 31.7858 8.21456C30.2381 6.66692 28.4008 5.43926 26.3787 4.60168C24.3566 3.7641 22.1894 3.33301 20.0007 3.33301ZM20.0007 33.333C17.3636 33.333 14.7857 32.551 12.5931 31.0859C10.4004 29.6209 8.69143 27.5385 7.68227 25.1021C6.6731 22.6658 6.40905 19.9849 6.92352 17.3985C7.43799 14.8121 8.70787 12.4363 10.5726 10.5716C12.4373 8.70688 14.813 7.43701 17.3995 6.92254C19.9859 6.40807 22.6668 6.67211 25.1031 7.68128C27.5395 8.69045 29.6218 10.3994 31.0869 12.5921C32.552 14.7847 33.334 17.3626 33.334 19.9997C33.334 23.5359 31.9292 26.9273 29.4287 29.4278C26.9283 31.9283 23.5369 33.333 20.0007 33.333ZM20.0007 11.6663C19.1224 11.6658 18.2595 11.8965 17.4988 12.3354C16.7381 12.7743 16.1064 13.4058 15.6673 14.1663C15.5467 14.356 15.4658 14.5682 15.4293 14.79C15.3928 15.0118 15.4016 15.2387 15.455 15.457C15.5085 15.6753 15.6056 15.8806 15.7405 16.0604C15.8753 16.2402 16.0452 16.3909 16.2398 16.5034C16.4344 16.6159 16.6497 16.6879 16.8729 16.715C17.096 16.7421 17.3223 16.7238 17.5382 16.6611C17.7541 16.5985 17.9551 16.4929 18.1291 16.3505C18.3031 16.2082 18.4465 16.0322 18.5507 15.833C18.6975 15.5787 18.9089 15.3676 19.1636 15.2213C19.4182 15.075 19.707 14.9985 20.0007 14.9997C20.4427 14.9997 20.8666 15.1753 21.1792 15.4878C21.4917 15.8004 21.6673 16.2243 21.6673 16.6663C21.6673 17.1084 21.4917 17.5323 21.1792 17.8449C20.8666 18.1574 20.4427 18.333 20.0007 18.333C19.5586 18.333 19.1347 18.5086 18.8221 18.8212C18.5096 19.1337 18.334 19.5576 18.334 19.9997V21.6663C18.334 22.1084 18.5096 22.5323 18.8221 22.8449C19.1347 23.1574 19.5586 23.333 20.0007 23.333C20.4427 23.333 20.8666 23.1574 21.1792 22.8449C21.4917 22.5323 21.6673 22.1084 21.6673 21.6663V21.3663C22.7696 20.9664 23.6963 20.1917 24.2853 19.1778C24.8743 18.1639 25.0882 16.9752 24.8897 15.8195C24.6911 14.6638 24.0927 13.6147 23.199 12.8555C22.3053 12.0964 21.1732 11.6754 20.0007 11.6663Z" fill="#FFBC57"/>
</svg>
