<svg xmlns="http://www.w3.org/2000/svg" width="60" height="60" fill="none"><g clip-path="url(#a)"><circle cx="30" cy="30" r="30" fill="#FFBC57"/><path fill="#fff" d="M13 30.636v6.819a1.364 1.364 0 0 0 1.364 1.363h1.363a4.09 4.09 0 1 0 8.182 0h8.182a4.09 4.09 0 1 0 8.182 0h1.363A1.364 1.364 0 0 0 43 37.455V21.09A4.09 4.09 0 0 0 38.91 17H26.635a4.09 4.09 0 0 0-4.09 4.09v2.728h-2.728a4.09 4.09 0 0 0-3.273 1.636l-3.272 4.364a.831.831 0 0 0-.096.191l-.082.15c-.06.152-.092.314-.095.477Zm21.818 8.182a1.364 1.364 0 1 1 2.728 0 1.364 1.364 0 0 1-2.728 0Zm-9.545-17.727a1.364 1.364 0 0 1 1.363-1.364H38.91a1.363 1.363 0 0 1 1.364 1.364v15h-1.064a4.09 4.09 0 0 0-6.055 0h-7.881v-15Zm-2.727 8.182H17.09l1.636-2.182a1.365 1.365 0 0 1 1.091-.546h2.727v2.728Zm-4.091 9.545a1.363 1.363 0 1 1 2.726 0 1.363 1.363 0 0 1-2.727 0ZM15.726 32h6.819v3.79a4.091 4.091 0 0 0-5.755.3h-1.064V32Z"/></g><defs><clipPath id="a"><path fill="#fff" d="M0 0h60v60H0z"/></clipPath></defs></svg>