<svg width="80" height="80" viewBox="0 0 80 80" fill="none" xmlns="http://www.w3.org/2000/svg">
<g clip-path="url(#clip0_195_6228)">
<path d="M62.3187 40.8464C70.5007 40.8464 77.1335 34.2136 77.1335 26.0316C77.1335 17.8496 70.5007 11.2168 62.3187 11.2168C54.1367 11.2168 47.5039 17.8496 47.5039 26.0316C47.5039 34.2136 54.1367 40.8464 62.3187 40.8464Z" fill="#FFBC57"/>
<path d="M21.6828 25.3968C28.6959 25.3968 34.3812 19.7116 34.3812 12.6984C34.3812 5.68527 28.6959 0 21.6828 0C14.6696 0 8.98438 5.68527 8.98438 12.6984C8.98438 19.7116 14.6696 25.3968 21.6828 25.3968Z" fill="#FFBC57"/>
<path d="M23.164 79.9999C34.8526 79.9999 44.328 70.5245 44.328 58.8359C44.328 47.1473 34.8526 37.6719 23.164 37.6719C11.4755 37.6719 2 47.1473 2 58.8359C2 70.5245 11.4755 79.9999 23.164 79.9999Z" fill="#FFBC57"/>
<path d="M39.3546 23.3865C32.3705 24.233 26.6562 29.8415 25.7038 36.7198C25.1747 40.4235 25.9155 43.9156 27.6086 46.8785L25.4922 55.0267L33.6403 53.0161C36.6033 54.7092 40.0954 55.45 43.7991 54.9209C50.7832 53.8627 56.2858 48.2542 57.1324 41.2701C58.4022 30.7939 49.725 22.1166 39.3546 23.3865Z" fill="white"/>
<path d="M41.3654 55.8732C38.614 55.8732 35.9685 55.2383 33.5347 53.8626L25.704 55.7674C25.3865 55.8732 25.1749 55.7674 24.9632 55.5557C24.7516 55.3441 24.6458 55.0266 24.7516 54.815L26.6564 46.9843C24.9632 43.8097 24.3283 40.2118 24.8574 36.6139C25.9156 29.2065 31.8415 23.4922 39.249 22.5399C44.4341 21.9049 49.5135 23.5981 53.1114 27.3018C56.8151 31.0055 58.5082 35.979 57.8733 41.1642C56.9209 48.5716 51.2066 54.4975 43.7992 55.5557C43.0585 55.7674 42.2119 55.8732 41.3654 55.8732ZM33.6405 52.1695C33.7463 52.1695 33.9579 52.1695 34.0638 52.2753C37.0267 53.9684 40.3072 54.4975 43.6934 54.0743C50.3601 53.1219 55.5453 47.7251 56.3918 41.0584C56.9209 36.4023 55.4394 31.7462 52.0532 28.4658C48.7728 25.1854 44.1167 23.5981 39.4606 24.1272C32.7939 24.9737 27.3971 30.1589 26.4447 36.8256C25.9156 40.2118 26.5505 43.4923 28.2437 46.4552C28.3495 46.6669 28.3495 46.8785 28.3495 46.9843L26.6564 53.9684L33.5347 52.2753C33.5347 52.1695 33.6405 52.1695 33.6405 52.1695Z" fill="#2B2929"/>
<path d="M41.3659 44.3387C40.9426 44.3387 40.5194 44.0212 40.5194 43.4921V42.8572C40.5194 40.3175 42.0008 39.1535 43.1649 38.3069C44.2231 37.5662 44.9638 36.9313 44.9638 35.4498C44.9638 33.7566 43.9056 32.381 42.4241 31.9577C41.2601 31.6402 39.9903 31.8519 39.0379 32.4868C38.0855 33.2275 37.5564 34.2857 37.5564 35.4498C37.5564 35.8731 37.2389 36.2963 36.7098 36.2963C36.2866 36.2963 35.8633 35.9789 35.8633 35.4498C35.8633 33.7566 36.7098 32.1693 37.9797 31.217C39.3553 30.1588 41.0485 29.9471 42.7416 30.3704C44.9638 31.0053 46.4453 33.0159 46.4453 35.4498C46.4453 37.7778 45.0696 38.7302 43.9056 39.5768C42.8474 40.4233 41.895 41.0582 41.895 42.8572V43.4921C42.2125 44.0212 41.895 44.3387 41.3659 44.3387Z" fill="#FFBC57"/>
<path d="M42.1056 47.4073C41.6823 46.984 41.0474 46.984 40.6241 47.4073C40.4125 47.6189 40.3066 47.8306 40.3066 48.148C40.3066 48.4655 40.4125 48.6771 40.6241 48.8888C40.8357 49.1004 41.0474 49.2062 41.3648 49.2062C41.6823 49.2062 41.8939 49.1004 42.1056 48.8888C42.3172 48.6771 42.423 48.4655 42.423 48.148C42.423 47.8306 42.3172 47.5131 42.1056 47.4073Z" fill="#FFBC57"/>
<path d="M41.3664 70.8998C40.9431 70.8998 40.5199 70.5824 40.5199 70.0533C40.5199 69.63 40.8373 69.2067 41.3664 69.2067C57.8744 69.2067 71.3135 55.7676 71.3135 39.2596C71.3135 22.9633 57.8744 9.52418 41.3664 9.52418C24.9643 9.52418 11.5252 22.9633 11.5252 39.3654C11.5252 39.8946 11.2077 40.212 10.6786 40.212C10.2553 40.212 9.83203 39.8946 9.83203 39.3654C9.83203 22.011 23.9061 7.83105 41.2606 7.83105C58.6151 7.83105 72.9008 22.011 72.9008 39.3654C72.9008 56.7199 58.7209 70.8998 41.3664 70.8998Z" fill="#2B2929"/>
<path d="M44.539 73.2273H38.1898C35.8618 73.2273 33.957 71.3226 33.957 68.9945C33.957 66.6665 35.8618 64.7617 38.1898 64.7617H44.539C46.8671 64.7617 48.7718 66.6665 48.7718 68.9945C48.7718 71.4284 46.9729 73.2273 44.539 73.2273Z" fill="white"/>
<path d="M44.5399 74.0738H38.1907C35.4394 74.0738 33.1113 71.8515 33.1113 68.9944C33.1113 66.2431 35.3336 63.915 38.1907 63.915H44.5399C47.2912 63.915 49.6193 66.1373 49.6193 68.9944C49.6193 71.8515 47.397 74.0738 44.5399 74.0738ZM38.1907 65.6082C36.2859 65.6082 34.6986 67.1955 34.6986 69.1002C34.6986 71.005 36.2859 72.5923 38.1907 72.5923H44.5399C46.4447 72.5923 48.032 71.005 48.032 69.1002C48.032 67.1955 46.4447 65.6082 44.5399 65.6082H38.1907Z" fill="#2B2929"/>
<path d="M15.9695 51.005C11.3134 51.005 7.50391 47.1955 7.50391 42.5394V36.1902C7.50391 31.5341 11.3134 27.7246 15.9695 27.7246C17.1335 27.7246 18.0859 28.677 18.0859 29.841V48.8886C18.0859 50.1585 17.1335 51.005 15.9695 51.005Z" fill="white"/>
<path d="M15.9684 51.8515C10.8891 51.8515 6.65625 47.7245 6.65625 42.5393V36.1901C6.65625 31.1107 10.7832 26.8779 15.9684 26.8779C17.5557 26.8779 18.9314 28.1478 18.9314 29.8409V48.8885C18.9314 50.5816 17.6615 51.8515 15.9684 51.8515ZM15.9684 28.5711C11.7356 28.5711 8.24355 32.0631 8.24355 36.2959V42.6451C8.24355 46.8779 11.7356 50.37 15.9684 50.37C16.7092 50.37 17.3441 49.7351 17.3441 48.9943V29.9467C17.3441 29.206 16.7092 28.5711 15.9684 28.5711Z" fill="#2B2929"/>
<path d="M12.7938 46.5605C12.3705 46.5605 11.9473 46.243 11.9473 45.7139V33.0155C11.9473 32.5922 12.2647 32.1689 12.7938 32.1689C13.2171 32.1689 13.6404 32.4864 13.6404 33.0155V45.7139C13.6404 46.243 13.3229 46.5605 12.7938 46.5605Z" fill="#2B2929"/>
<path d="M66.7609 51.005C65.5969 51.005 64.6445 50.0527 64.6445 48.8886V29.841C64.6445 28.677 65.5969 27.7246 66.7609 27.7246C71.417 27.7246 75.2265 31.5341 75.2265 36.1902V42.5394C75.2265 47.3013 71.5228 51.005 66.7609 51.005Z" fill="white"/>
<path d="M66.7614 51.8515C65.1741 51.8515 63.9043 50.5816 63.9043 48.8885V29.8409C63.9043 28.2536 65.1741 26.8779 66.7614 26.8779C71.8408 26.8779 76.0736 31.0049 76.0736 36.1901V42.5393C76.0736 47.7245 71.9466 51.8515 66.7614 51.8515ZM66.7614 28.5711C66.0207 28.5711 65.4916 29.206 65.4916 29.9467V48.9943C65.4916 49.7351 66.1265 50.37 66.7614 50.37C70.9942 50.37 74.4863 46.8779 74.4863 42.6451V36.2959C74.4863 31.9573 70.9942 28.5711 66.7614 28.5711Z" fill="#2B2929"/>
<path d="M69.9364 46.5605C69.5131 46.5605 69.0898 46.243 69.0898 45.7139V33.0155C69.0898 32.5922 69.4073 32.1689 69.9364 32.1689C70.3597 32.1689 70.783 32.4864 70.783 33.0155V45.7139C70.783 46.243 70.4655 46.5605 69.9364 46.5605Z" fill="#2B2929"/>
<path d="M23.4813 18.5187C23.5871 18.4129 23.5871 18.5187 23.4813 18.5187C23.2697 18.6245 22.9522 18.8362 22.6348 18.942C23.058 18.8362 23.2697 18.7304 23.4813 18.5187Z" fill="#FFBC57"/>
<path d="M41.3652 5.50293C32.8996 5.50293 25.1747 8.57171 19.2488 13.7569C18.1906 14.6035 18.1906 16.1908 19.143 17.1431L20.4128 18.413C21.2594 19.2595 22.635 19.2595 23.5874 18.5188C28.3493 14.3918 34.5927 11.958 41.471 11.958C48.2435 11.958 54.5927 14.3918 59.3546 18.5188C60.307 19.2595 61.6827 19.2595 62.5292 18.413L63.7991 17.1431C64.7515 16.1908 64.7515 14.6035 63.6933 13.7569C57.6615 8.67753 49.8308 5.50293 41.3652 5.50293Z" fill="white"/>
<path d="M60.8371 19.894C60.0963 19.894 59.3556 19.6824 58.8265 19.1533C53.9588 14.9204 47.8212 12.6982 41.3662 12.6982C35.017 12.6982 28.8794 15.0263 24.0117 19.1533C22.7418 20.2115 20.9429 20.2115 19.7789 19.0474L18.509 17.7776C17.8741 17.1427 17.5566 16.2961 17.5566 15.4495C17.5566 14.603 17.9799 13.7564 18.6148 13.2273C24.8582 7.8305 32.9006 4.76172 41.2603 4.76172C49.6201 4.76172 57.6625 7.72468 63.9058 13.2273C64.5408 13.7564 64.964 14.603 64.964 15.4495C64.964 16.2961 64.6466 17.1427 64.0117 17.7776L62.7418 19.0474C62.4244 19.5765 61.5778 19.894 60.8371 19.894ZM41.3662 11.1109C48.1387 11.1109 54.5937 13.5448 59.7789 17.8834C60.4138 18.4125 61.2603 18.4125 61.8953 17.7776L63.1651 16.5078C63.4826 16.1903 63.5884 15.767 63.5884 15.3437C63.5884 14.9204 63.3767 14.4972 63.0593 14.2855C57.0275 9.20616 49.3027 6.34902 41.3662 6.34902C33.4297 6.34902 25.7048 9.20616 19.7789 14.3913C19.4614 14.7088 19.2498 15.0263 19.2498 15.4495C19.2498 15.8728 19.3556 16.2961 19.673 16.6136L20.9429 17.8834C21.472 18.4125 22.4244 18.5183 23.0593 17.9892C28.1387 13.5448 34.6995 11.1109 41.3662 11.1109Z" fill="#2B2929"/>
</g>
<defs>
<clipPath id="clip0_195_6228">
<rect width="80" height="80" fill="white"/>
</clipPath>
</defs>
</svg>
