<svg xmlns="http://www.w3.org/2000/svg" width="50" height="50" fill="none"><path fill="#535353" d="M41.667 22.917H8.333c-1.25 0-2.083.833-2.083 2.083 0 1.25.833 2.083 2.083 2.083h33.334c1.25 0 2.083-.833 2.083-2.083 0-1.25-.833-2.083-2.083-2.083Zm-33.334-6.25h33.334c1.25 0 2.083-.834 2.083-2.084s-.833-2.083-2.083-2.083H8.333c-1.25 0-2.083.833-2.083 2.083 0 1.25.833 2.084 2.083 2.084Zm33.334 16.666H8.333c-1.25 0-2.083.834-2.083 2.084S7.083 37.5 8.333 37.5h33.334c1.25 0 2.083-.833 2.083-2.083 0-1.25-.833-2.084-2.083-2.084Z"/></svg>