<svg xmlns="http://www.w3.org/2000/svg" width="50" height="50" fill="none"><g clip-path="url(#a)"><circle cx="25" cy="25" r="24" stroke="#FFBC57" stroke-width="2"/><path fill="#535353" d="m36.677 35.061-4.264-4.233a10.357 10.357 0 0 0-1.166-14.185 10.34 10.34 0 0 0-14.217.389 10.355 10.355 0 0 0 6.466 17.637 10.338 10.338 0 0 0 7.32-2.242l4.229 4.233a1.15 1.15 0 0 0 1.632 0 1.15 1.15 0 0 0 0-1.599Zm-12.31-2.634a8.04 8.04 0 0 1-7.432-4.97 8.057 8.057 0 0 1 1.744-8.774 8.044 8.044 0 0 1 13.734 5.693 8.054 8.054 0 0 1-2.356 5.693 8.042 8.042 0 0 1-5.69 2.358Z"/></g><defs><clipPath id="a"><path fill="#fff" d="M0 0h50v50H0z"/></clipPath></defs></svg>