<svg xmlns="http://www.w3.org/2000/svg" width="60" height="60" fill="none"><g clip-path="url(#a)"><circle cx="30" cy="30" r="30" fill="#FFBC57"/><path fill="#fff" d="M40.5 22H39v-1.5a4.5 4.5 0 0 0-4.5-4.5h-15a4.5 4.5 0 0 0-4.5 4.5v18a4.5 4.5 0 0 0 4.5 4.5h21a4.5 4.5 0 0 0 4.5-4.5v-12a4.5 4.5 0 0 0-4.5-4.5Zm-21-3h15a1.5 1.5 0 0 1 1.5 1.5V22H19.5a1.5 1.5 0 1 1 0-3ZM42 34h-1.5a1.5 1.5 0 1 1 0-3H42v3Zm0-6h-1.5a4.5 4.5 0 1 0 0 9H42v1.5a1.5 1.5 0 0 1-1.5 1.5h-21a1.5 1.5 0 0 1-1.5-1.5V24.745a4.5 4.5 0 0 0 1.5.255h21a1.5 1.5 0 0 1 1.5 1.5V28Z"/></g><defs><clipPath id="a"><path fill="#fff" d="M0 0h60v60H0z"/></clipPath></defs></svg>