<svg xmlns="http://www.w3.org/2000/svg" width="48" height="32" fill="none"><path fill="#8DC641" d="M11.24 6C5.59 6 1 10.583 1 16.24 1 21.9 5.583 26.483 11.24 26.483c5.659 0 10.242-4.583 10.242-10.241C21.482 10.583 16.898 6 11.24 6Zm0 19.354a9.114 9.114 0 1 1 .002-18.228 9.114 9.114 0 0 1-.001 18.228Z"/><path fill="#000" d="m14.774 13.877-2.252 3.43h2.252v-3.43Zm.85-1.389v4.826h.99v.873h-.99v1.804h-.856v-1.804h-3.186v-.939l3.212-4.753.83-.007Zm-4.982 6.624v.873H5.867v-.027c.045-.82.251-1.42.65-1.917.322-.41.715-.714 1.519-1.23 0 0 .283-.184.367-.237.431-.285.708-.51.933-.767.277-.33.418-.688.418-1.11 0-.82-.566-1.382-1.377-1.382-.946 0-1.429.74-1.454 1.844v.02h-.85v-.02l-.006-.198c0-1.481.94-2.473 2.355-2.473 1.384 0 2.285.86 2.285 2.188 0 .681-.238 1.23-.695 1.713-.341.37-.695.614-1.487 1.11l-.032.02c-.039.02-.212.126-.257.159-.38.231-.612.396-.818.595a1.713 1.713 0 0 0-.495.833h3.72v.006ZM25.902 11.21h4.184c1.04 0 1.856.249 2.456.737.6.496.904 1.224.904 2.2 0 .92-.28 1.648-.84 2.184-.56.536-1.32.808-2.288.808h-2.72v3.711h-1.696v-9.64Zm1.696 1.417v3.16h2.36c1.232 0 1.84-.528 1.84-1.584 0-1.048-.664-1.568-1.992-1.568l-2.208-.008ZM34.3 16.028c.16-1.584 1.184-2.368 3.064-2.368.872 0 1.576.168 2.096.512s.776.88.776 1.6v3.544c0 .2.024.336.072.408.048.072.144.112.288.112.112 0 .224-.008.352-.024V20.9c-.4.096-.728.152-1 .152-.656 0-1.04-.28-1.136-.84-.584.56-1.408.84-2.456.84-.72 0-1.296-.184-1.72-.56-.424-.376-.64-.88-.64-1.528 0-.2.024-.384.064-.552.048-.168.096-.32.16-.448a.967.967 0 0 1 .288-.352c.128-.112.24-.2.328-.272.088-.072.224-.136.424-.2l.432-.144a3.77 3.77 0 0 1 .496-.104c.232-.032.392-.064.464-.072.08-.016.24-.032.48-.064.552-.072.928-.136 1.128-.184.2-.048.336-.128.408-.224.064-.072.096-.24.096-.504 0-.704-.48-1.056-1.44-1.056-.504 0-.872.096-1.112.288-.232.192-.384.512-.448.96H34.3v-.008Zm4.44 1.328c-.12.064-.256.12-.408.168-.152.048-.28.08-.376.096-.096.016-.24.032-.448.064-.2.024-.336.048-.4.056-.192.024-.336.056-.448.072-.112.024-.24.064-.4.112-.16.056-.28.12-.368.2a1.044 1.044 0 0 0-.32.776c0 .336.112.592.328.768.224.184.528.272.928.272.688 0 1.216-.184 1.584-.552.208-.208.312-.608.312-1.208v-.824h.016ZM41.525 13.705l2.642 7.206-.247.78c-.105.34-.575.866-1.126.89h-.73v1.466h.933c1.067 0 2.01-.696 2.325-1.716l.366-1.186v-.002L48 13.705h-1.699l-1.435 4.617-1.621-4.617h-1.72Z"/></svg>